<svg viewBox="0 0 64 64" xmlns="http://www.w3.org/2000/svg"><path d="m20 2h40a2 2 0 0 1 2 2v56a2 2 0 0 1 -2 2h-40a0 0 0 0 1 0 0v-60a0 0 0 0 1 0 0z" fill="#d1e7ff"/><path d="m11 2h9a0 0 0 0 1 0 0v60a0 0 0 0 1 0 0h-9a4 4 0 0 1 -4-4v-52a4 4 0 0 1 4-4z" fill="#a2d0ff"/><g fill="#8bc4ff"><path d="m8 18h-2a4 4 0 0 1 0-8h2a4 4 0 0 1 0 8z"/><path d="m8 36h-2a4 4 0 0 1 0-8h2a4 4 0 0 1 0 8z"/><path d="m8 54h-2a4 4 0 0 1 0-8h2a4 4 0 0 1 0 8z"/><path d="m41 33a6 6 0 0 1 -6-6v-3a6 6 0 0 1 12 0v3a6 6 0 0 1 -6 6z"/><path d="m54 46h-26a13 13 0 0 1 26 0z"/></g><path d="m60 0h-49a6 6 0 0 0 -6 6v2.09a6 6 0 0 0 0 11.82v6.18a6 6 0 0 0 0 11.82v6.18a6 6 0 0 0 0 11.82v2.09a6 6 0 0 0 6 6h49a4 4 0 0 0 4-4v-56a4 4 0 0 0 -4-4zm-56 14a2 2 0 0 1 2-2c1.78 0 2.37-.1 3 .27a2 2 0 0 1 0 3.46c-.65.38-1.22.27-3 .27a2 2 0 0 1 -2-2zm0 18a2 2 0 0 1 2-2c1.78 0 2.37-.1 3 .27a2 2 0 0 1 0 3.46c-.65.38-1.22.27-3 .27a2 2 0 0 1 -2-2zm0 18a2 2 0 0 1 2-2c1.78 0 2.37-.1 3 .27a2 2 0 0 1 0 3.46c-.65.38-1.22.27-3 .27a2 2 0 0 1 -2-2zm5 8v-2.09a6 6 0 0 0 0-11.82v-6.18a6 6 0 0 0 0-11.82v-6.18a6 6 0 0 0 0-11.82v-2.09a2 2 0 0 1 2-2h7v56h-7a2 2 0 0 1 -2-2zm51 2h-38v-56h38z" fill="#2e58ff"/><path d="m28 48h26a2 2 0 0 0 2-2 15 15 0 0 0 -9-13.74c2.3-2.62 2-5.09 2-8.26a8 8 0 0 0 -16 0c0 3.22-.31 5.65 2 8.26a15 15 0 0 0 -9 13.74 2 2 0 0 0 2 2zm9-21v-3a4 4 0 0 1 8 0v3a4 4 0 0 1 -8 0zm4 8a11 11 0 0 1 10.82 9h-21.64a11 11 0 0 1 10.82-9z" fill="#2e58ff"/></svg>